# xmcd
#
# Track frame offsets: 
#        150
#        15525
#        34275
#        52100
#        67950
#        86325
#        103725
#        126100
#        146175
#        171125
#        187725
#        208475
#        229475
#        247425
#
# Disc length: 3581 seconds
#
# Revision: 0
# Processed by: cddbd v1.5.2PL0 Copyright (c) Steve Scherf et al.
# Submitted via: ExactAudioCopyFreeDBPlugin 1.0
#
DISCID=d30dfb0e
DTITLE=曼里 - 星光背後
DYEAR=2013
DGENRE=Blues
TTITLE0=倩影
TTITLE1=偏偏喜歡你
TTITLE2=印象
TTITLE3=月滿窗
TTITLE4=漁火閃閃
TTITLE5=愛在陽光空氣中
TTITLE6=星光背後
TTITLE7=恨綿綿
TTITLE8=月光光
TTITLE9=春宵良夢
TTITLE10=昨晚你已嫁給誰
TTITLE11=你身邊永遠是我
TTITLE12=誰可改變
TTITLE13=共同渡過
EXTD=
EXTT0=
EXTT1=
EXTT2=
EXTT3=
EXTT4=
EXTT5=
EXTT6=
EXTT7=
EXTT8=
EXTT9=
EXTT10=
EXTT11=
EXTT12=
EXTT13=
PLAYORDER=
